<mxfile host="app.diagrams.net" modified="2022-10-24T09:01:46.889Z" agent="5.0 (Windows NT 10.0; Win64; x64) AppleWebKit/537.36 (KHTML, like Gecko) Chrome/106.0.0.0 Safari/537.36 Edg/106.0.1370.52" etag="n6DaSZd5BGEZe4djp7Bk" version="20.5.1" type="github">
  <diagram id="Isc1b1vTbgoGX_EQct6z" name="第 1 页">
    <mxGraphModel dx="1049" dy="679" grid="1" gridSize="10" guides="1" tooltips="1" connect="1" arrows="1" fold="1" page="1" pageScale="1" pageWidth="827" pageHeight="1169" math="0" shadow="0">
      <root>
        <mxCell id="0" />
        <mxCell id="1" parent="0" />
        <mxCell id="CLQeztrG1vP0hezbq90_-1" value="&lt;font style=&quot;font-size: 14px;&quot;&gt;&lt;b&gt;Value&lt;/b&gt;&lt;/font&gt;" style="rounded=0;whiteSpace=wrap;html=1;" vertex="1" parent="1">
          <mxGeometry x="160" y="160" width="80" height="80" as="geometry" />
        </mxCell>
        <mxCell id="CLQeztrG1vP0hezbq90_-2" value="&lt;font style=&quot;font-size: 14px;&quot;&gt;&lt;b&gt;Index&lt;/b&gt;&lt;/font&gt;" style="rounded=0;whiteSpace=wrap;html=1;" vertex="1" parent="1">
          <mxGeometry x="160" y="80" width="80" height="80" as="geometry" />
        </mxCell>
        <mxCell id="CLQeztrG1vP0hezbq90_-3" value="&lt;font style=&quot;font-size: 14px;&quot;&gt;2&lt;/font&gt;" style="rounded=0;whiteSpace=wrap;html=1;" vertex="1" parent="1">
          <mxGeometry x="240" y="160" width="80" height="80" as="geometry" />
        </mxCell>
        <mxCell id="CLQeztrG1vP0hezbq90_-4" value="0" style="rounded=0;whiteSpace=wrap;html=1;" vertex="1" parent="1">
          <mxGeometry x="240" y="80" width="80" height="80" as="geometry" />
        </mxCell>
        <mxCell id="CLQeztrG1vP0hezbq90_-5" value="&lt;font style=&quot;font-size: 14px;&quot;&gt;3&lt;/font&gt;" style="rounded=0;whiteSpace=wrap;html=1;" vertex="1" parent="1">
          <mxGeometry x="320" y="160" width="80" height="80" as="geometry" />
        </mxCell>
        <mxCell id="CLQeztrG1vP0hezbq90_-6" value="1" style="rounded=0;whiteSpace=wrap;html=1;" vertex="1" parent="1">
          <mxGeometry x="320" y="80" width="80" height="80" as="geometry" />
        </mxCell>
        <mxCell id="CLQeztrG1vP0hezbq90_-7" value="&lt;font style=&quot;font-size: 14px;&quot;&gt;1&lt;/font&gt;" style="rounded=0;whiteSpace=wrap;html=1;" vertex="1" parent="1">
          <mxGeometry x="400" y="160" width="80" height="80" as="geometry" />
        </mxCell>
        <mxCell id="CLQeztrG1vP0hezbq90_-8" value="2" style="rounded=0;whiteSpace=wrap;html=1;" vertex="1" parent="1">
          <mxGeometry x="400" y="80" width="80" height="80" as="geometry" />
        </mxCell>
        <mxCell id="CLQeztrG1vP0hezbq90_-9" value="&lt;font style=&quot;font-size: 14px;&quot;&gt;1&lt;/font&gt;" style="rounded=0;whiteSpace=wrap;html=1;" vertex="1" parent="1">
          <mxGeometry x="480" y="160" width="80" height="80" as="geometry" />
        </mxCell>
        <mxCell id="CLQeztrG1vP0hezbq90_-10" value="3" style="rounded=0;whiteSpace=wrap;html=1;" vertex="1" parent="1">
          <mxGeometry x="480" y="80" width="80" height="80" as="geometry" />
        </mxCell>
        <mxCell id="CLQeztrG1vP0hezbq90_-11" value="&lt;font style=&quot;font-size: 14px;&quot;&gt;4&lt;/font&gt;" style="rounded=0;whiteSpace=wrap;html=1;" vertex="1" parent="1">
          <mxGeometry x="560" y="160" width="80" height="80" as="geometry" />
        </mxCell>
        <mxCell id="CLQeztrG1vP0hezbq90_-12" value="4" style="rounded=0;whiteSpace=wrap;html=1;" vertex="1" parent="1">
          <mxGeometry x="560" y="80" width="80" height="80" as="geometry" />
        </mxCell>
        <mxCell id="CLQeztrG1vP0hezbq90_-13" value="&lt;font style=&quot;font-size: 14px;&quot;&gt;&lt;b&gt;Value&lt;/b&gt;&lt;/font&gt;" style="rounded=0;whiteSpace=wrap;html=1;" vertex="1" parent="1">
          <mxGeometry x="160" y="520" width="80" height="80" as="geometry" />
        </mxCell>
        <mxCell id="CLQeztrG1vP0hezbq90_-14" value="&lt;font style=&quot;font-size: 14px;&quot;&gt;&lt;b&gt;Index&lt;/b&gt;&lt;/font&gt;" style="rounded=0;whiteSpace=wrap;html=1;" vertex="1" parent="1">
          <mxGeometry x="160" y="440" width="80" height="80" as="geometry" />
        </mxCell>
        <mxCell id="CLQeztrG1vP0hezbq90_-15" value="&lt;font style=&quot;font-size: 14px;&quot;&gt;2&lt;/font&gt;" style="rounded=0;whiteSpace=wrap;html=1;" vertex="1" parent="1">
          <mxGeometry x="240" y="520" width="80" height="80" as="geometry" />
        </mxCell>
        <mxCell id="CLQeztrG1vP0hezbq90_-16" value="0" style="rounded=0;whiteSpace=wrap;html=1;fillColor=#dae8fc;strokeColor=#6c8ebf;" vertex="1" parent="1">
          <mxGeometry x="240" y="440" width="80" height="80" as="geometry" />
        </mxCell>
        <mxCell id="CLQeztrG1vP0hezbq90_-17" value="&lt;font style=&quot;font-size: 14px;&quot;&gt;3&lt;/font&gt;" style="rounded=0;whiteSpace=wrap;html=1;" vertex="1" parent="1">
          <mxGeometry x="320" y="520" width="80" height="80" as="geometry" />
        </mxCell>
        <mxCell id="CLQeztrG1vP0hezbq90_-18" value="1" style="rounded=0;whiteSpace=wrap;html=1;" vertex="1" parent="1">
          <mxGeometry x="320" y="440" width="80" height="80" as="geometry" />
        </mxCell>
        <mxCell id="CLQeztrG1vP0hezbq90_-19" value="&lt;font style=&quot;font-size: 14px;&quot;&gt;1&lt;/font&gt;" style="rounded=0;whiteSpace=wrap;html=1;" vertex="1" parent="1">
          <mxGeometry x="400" y="520" width="80" height="80" as="geometry" />
        </mxCell>
        <mxCell id="CLQeztrG1vP0hezbq90_-20" value="2" style="rounded=0;whiteSpace=wrap;html=1;" vertex="1" parent="1">
          <mxGeometry x="400" y="440" width="80" height="80" as="geometry" />
        </mxCell>
        <mxCell id="CLQeztrG1vP0hezbq90_-21" value="&lt;font style=&quot;font-size: 14px;&quot;&gt;1&lt;/font&gt;" style="rounded=0;whiteSpace=wrap;html=1;" vertex="1" parent="1">
          <mxGeometry x="480" y="520" width="80" height="80" as="geometry" />
        </mxCell>
        <mxCell id="CLQeztrG1vP0hezbq90_-22" value="3" style="rounded=0;whiteSpace=wrap;html=1;" vertex="1" parent="1">
          <mxGeometry x="480" y="440" width="80" height="80" as="geometry" />
        </mxCell>
        <mxCell id="CLQeztrG1vP0hezbq90_-23" value="&lt;font style=&quot;font-size: 14px;&quot;&gt;4&lt;/font&gt;" style="rounded=0;whiteSpace=wrap;html=1;" vertex="1" parent="1">
          <mxGeometry x="560" y="520" width="80" height="80" as="geometry" />
        </mxCell>
        <mxCell id="CLQeztrG1vP0hezbq90_-24" value="4" style="rounded=0;whiteSpace=wrap;html=1;" vertex="1" parent="1">
          <mxGeometry x="560" y="440" width="80" height="80" as="geometry" />
        </mxCell>
        <mxCell id="CLQeztrG1vP0hezbq90_-25" value="Coverage = 0 before first run" style="text;html=1;strokeColor=none;fillColor=none;align=left;verticalAlign=middle;whiteSpace=wrap;rounded=0;fontSize=14;" vertex="1" parent="1">
          <mxGeometry x="240" y="290" width="240" height="30" as="geometry" />
        </mxCell>
        <mxCell id="CLQeztrG1vP0hezbq90_-28" value="Coverage = 0 + 2 = 2" style="text;html=1;strokeColor=none;fillColor=none;align=left;verticalAlign=middle;whiteSpace=wrap;rounded=0;fontSize=14;" vertex="1" parent="1">
          <mxGeometry x="240" y="695" width="240" height="30" as="geometry" />
        </mxCell>
        <mxCell id="CLQeztrG1vP0hezbq90_-29" value="" style="rounded=1;whiteSpace=wrap;html=1;fontSize=14;fillColor=#d5e8d4;strokeColor=#82b366;" vertex="1" parent="1">
          <mxGeometry x="240" y="650" width="240" height="25" as="geometry" />
        </mxCell>
        <mxCell id="CLQeztrG1vP0hezbq90_-30" value="&lt;font style=&quot;font-size: 14px;&quot;&gt;&lt;b&gt;Value&lt;/b&gt;&lt;/font&gt;" style="rounded=0;whiteSpace=wrap;html=1;" vertex="1" parent="1">
          <mxGeometry x="160" y="919" width="80" height="80" as="geometry" />
        </mxCell>
        <mxCell id="CLQeztrG1vP0hezbq90_-31" value="&lt;font style=&quot;font-size: 14px;&quot;&gt;&lt;b&gt;Index&lt;/b&gt;&lt;/font&gt;" style="rounded=0;whiteSpace=wrap;html=1;" vertex="1" parent="1">
          <mxGeometry x="160" y="839" width="80" height="80" as="geometry" />
        </mxCell>
        <mxCell id="CLQeztrG1vP0hezbq90_-32" value="&lt;font style=&quot;font-size: 14px;&quot;&gt;2&lt;/font&gt;" style="rounded=0;whiteSpace=wrap;html=1;" vertex="1" parent="1">
          <mxGeometry x="240" y="919" width="80" height="80" as="geometry" />
        </mxCell>
        <mxCell id="CLQeztrG1vP0hezbq90_-33" value="0" style="rounded=0;whiteSpace=wrap;html=1;" vertex="1" parent="1">
          <mxGeometry x="240" y="839" width="80" height="80" as="geometry" />
        </mxCell>
        <mxCell id="CLQeztrG1vP0hezbq90_-34" value="&lt;font style=&quot;font-size: 14px;&quot;&gt;3&lt;/font&gt;" style="rounded=0;whiteSpace=wrap;html=1;" vertex="1" parent="1">
          <mxGeometry x="320" y="919" width="80" height="80" as="geometry" />
        </mxCell>
        <mxCell id="CLQeztrG1vP0hezbq90_-35" value="1" style="rounded=0;whiteSpace=wrap;html=1;fillColor=#dae8fc;strokeColor=#6c8ebf;" vertex="1" parent="1">
          <mxGeometry x="320" y="839" width="80" height="80" as="geometry" />
        </mxCell>
        <mxCell id="CLQeztrG1vP0hezbq90_-36" value="&lt;font style=&quot;font-size: 14px;&quot;&gt;1&lt;/font&gt;" style="rounded=0;whiteSpace=wrap;html=1;" vertex="1" parent="1">
          <mxGeometry x="400" y="919" width="80" height="80" as="geometry" />
        </mxCell>
        <mxCell id="CLQeztrG1vP0hezbq90_-37" value="2" style="rounded=0;whiteSpace=wrap;html=1;" vertex="1" parent="1">
          <mxGeometry x="400" y="839" width="80" height="80" as="geometry" />
        </mxCell>
        <mxCell id="CLQeztrG1vP0hezbq90_-38" value="&lt;font style=&quot;font-size: 14px;&quot;&gt;1&lt;/font&gt;" style="rounded=0;whiteSpace=wrap;html=1;" vertex="1" parent="1">
          <mxGeometry x="480" y="919" width="80" height="80" as="geometry" />
        </mxCell>
        <mxCell id="CLQeztrG1vP0hezbq90_-39" value="3" style="rounded=0;whiteSpace=wrap;html=1;" vertex="1" parent="1">
          <mxGeometry x="480" y="839" width="80" height="80" as="geometry" />
        </mxCell>
        <mxCell id="CLQeztrG1vP0hezbq90_-40" value="&lt;font style=&quot;font-size: 14px;&quot;&gt;4&lt;/font&gt;" style="rounded=0;whiteSpace=wrap;html=1;" vertex="1" parent="1">
          <mxGeometry x="560" y="919" width="80" height="80" as="geometry" />
        </mxCell>
        <mxCell id="CLQeztrG1vP0hezbq90_-41" value="4" style="rounded=0;whiteSpace=wrap;html=1;" vertex="1" parent="1">
          <mxGeometry x="560" y="839" width="80" height="80" as="geometry" />
        </mxCell>
        <mxCell id="CLQeztrG1vP0hezbq90_-42" value="Coverage = 0 + 2 = 2" style="text;html=1;strokeColor=none;fillColor=none;align=left;verticalAlign=middle;whiteSpace=wrap;rounded=0;fontSize=14;" vertex="1" parent="1">
          <mxGeometry x="240" y="1094" width="240" height="30" as="geometry" />
        </mxCell>
        <mxCell id="CLQeztrG1vP0hezbq90_-43" value="" style="rounded=1;whiteSpace=wrap;html=1;fontSize=14;fillColor=#d5e8d4;strokeColor=#82b366;" vertex="1" parent="1">
          <mxGeometry x="240" y="1049" width="240" height="25" as="geometry" />
        </mxCell>
        <mxCell id="CLQeztrG1vP0hezbq90_-44" value="Last jump index initialized to 0" style="text;html=1;strokeColor=none;fillColor=none;align=left;verticalAlign=middle;whiteSpace=wrap;rounded=0;fontSize=14;" vertex="1" parent="1">
          <mxGeometry x="240" y="330" width="240" height="30" as="geometry" />
        </mxCell>
      </root>
    </mxGraphModel>
  </diagram>
</mxfile>
